<?xml version="1.0" encoding="UTF-8" standalone="no"?>
<!DOCTYPE svg PUBLIC "-//W3C//DTD SVG 1.1//EN"
 "http://www.w3.org/Graphics/SVG/1.1/DTD/svg11.dtd">
<!-- Generated by graphviz version 2.47.2 (20210527.1257)
 -->
<!-- Title: snakemake_dag Pages: 1 -->
<svg width="269pt" height="332pt"
 viewBox="0.00 0.00 269.48 332.00" xmlns="http://www.w3.org/2000/svg" xmlns:xlink="http://www.w3.org/1999/xlink">
<g id="graph0" class="graph" transform="scale(1 1) rotate(0) translate(4 328)">
<title>snakemake_dag</title>
<polygon fill="white" stroke="transparent" points="-4,4 -4,-328 265.48,-328 265.48,4 -4,4"/>
<!-- 0 -->
<g id="node1" class="node">
<title>0</title>
<path fill="none" stroke="#d8b456" stroke-width="2" d="M80.98,-36C80.98,-36 50.98,-36 50.98,-36 44.98,-36 38.98,-30 38.98,-24 38.98,-24 38.98,-12 38.98,-12 38.98,-6 44.98,0 50.98,0 50.98,0 80.98,0 80.98,0 86.98,0 92.98,-6 92.98,-12 92.98,-12 92.98,-24 92.98,-24 92.98,-30 86.98,-36 80.98,-36"/>
<text text-anchor="middle" x="65.98" y="-15.5" font-family="sans" font-size="10.00">all</text>
</g>
<!-- 1 -->
<g id="node2" class="node">
<title>1</title>
<path fill="none" stroke="#70d856" stroke-width="2" d="M80.98,-180C80.98,-180 50.98,-180 50.98,-180 44.98,-180 38.98,-174 38.98,-168 38.98,-168 38.98,-156 38.98,-156 38.98,-150 44.98,-144 50.98,-144 50.98,-144 80.98,-144 80.98,-144 86.98,-144 92.98,-150 92.98,-156 92.98,-156 92.98,-168 92.98,-168 92.98,-174 86.98,-180 80.98,-180"/>
<text text-anchor="middle" x="65.98" y="-159.5" font-family="sans" font-size="10.00">mlst7</text>
</g>
<!-- 1&#45;&gt;0 -->
<g id="edge2" class="edge">
<title>1&#45;&gt;0</title>
<path fill="none" stroke="grey" stroke-width="2" d="M38.85,-145.21C26.03,-136.13 12.02,-123.45 4.98,-108 -1.66,-93.44 -1.66,-86.56 4.98,-72 10.53,-59.81 20.43,-49.34 30.66,-41.01"/>
<polygon fill="grey" stroke="grey" stroke-width="2" points="33,-43.62 38.85,-34.79 28.77,-38.04 33,-43.62"/>
</g>
<!-- 6 -->
<g id="node7" class="node">
<title>6</title>
<path fill="none" stroke="#9fd856" stroke-width="2" d="M105.98,-108C105.98,-108 25.98,-108 25.98,-108 19.98,-108 13.98,-102 13.98,-96 13.98,-96 13.98,-84 13.98,-84 13.98,-78 19.98,-72 25.98,-72 25.98,-72 105.98,-72 105.98,-72 111.98,-72 117.98,-78 117.98,-84 117.98,-84 117.98,-96 117.98,-96 117.98,-102 111.98,-108 105.98,-108"/>
<text text-anchor="middle" x="65.98" y="-87.5" font-family="sans" font-size="10.00">mlst7_multireport</text>
</g>
<!-- 1&#45;&gt;6 -->
<g id="edge8" class="edge">
<title>1&#45;&gt;6</title>
<path fill="none" stroke="grey" stroke-width="2" d="M65.98,-143.7C65.98,-135.98 65.98,-126.71 65.98,-118.11"/>
<polygon fill="grey" stroke="grey" stroke-width="2" points="69.48,-118.1 65.98,-108.1 62.48,-118.1 69.48,-118.1"/>
</g>
<!-- 2 -->
<g id="node3" class="node">
<title>2</title>
<path fill="none" stroke="#ced856" stroke-width="2" d="M149.48,-252C149.48,-252 86.48,-252 86.48,-252 80.48,-252 74.48,-246 74.48,-240 74.48,-240 74.48,-228 74.48,-228 74.48,-222 80.48,-216 86.48,-216 86.48,-216 149.48,-216 149.48,-216 155.48,-216 161.48,-222 161.48,-228 161.48,-228 161.48,-240 161.48,-240 161.48,-246 155.48,-252 149.48,-252"/>
<text text-anchor="middle" x="117.98" y="-231.5" font-family="sans" font-size="10.00">which_species</text>
</g>
<!-- 2&#45;&gt;1 -->
<g id="edge4" class="edge">
<title>2&#45;&gt;1</title>
<path fill="none" stroke="grey" stroke-width="2" d="M105.12,-215.7C98.95,-207.39 91.44,-197.28 84.65,-188.14"/>
<polygon fill="grey" stroke="grey" stroke-width="2" points="87.46,-186.04 78.68,-180.1 81.84,-190.22 87.46,-186.04"/>
</g>
<!-- 5 -->
<g id="node6" class="node">
<title>5</title>
<path fill="none" stroke="#56d8c9" stroke-width="2" d="M232.48,-180C232.48,-180 137.48,-180 137.48,-180 131.48,-180 125.48,-174 125.48,-168 125.48,-168 125.48,-156 125.48,-156 125.48,-150 131.48,-144 137.48,-144 137.48,-144 232.48,-144 232.48,-144 238.48,-144 244.48,-150 244.48,-156 244.48,-156 244.48,-168 244.48,-168 244.48,-174 238.48,-180 232.48,-180"/>
<text text-anchor="middle" x="184.98" y="-159.5" font-family="sans" font-size="10.00">aggregate_serotypes</text>
</g>
<!-- 2&#45;&gt;5 -->
<g id="edge7" class="edge">
<title>2&#45;&gt;5</title>
<path fill="none" stroke="grey" stroke-width="2" d="M134.54,-215.7C142.65,-207.22 152.57,-196.86 161.45,-187.58"/>
<polygon fill="grey" stroke="grey" stroke-width="2" points="164.22,-189.75 168.61,-180.1 159.16,-184.91 164.22,-189.75"/>
</g>
<!-- 3 -->
<g id="node4" class="node">
<title>3</title>
<path fill="none" stroke="#56d86b" stroke-width="2" d="M153.48,-324C153.48,-324 82.48,-324 82.48,-324 76.48,-324 70.48,-318 70.48,-312 70.48,-312 70.48,-300 70.48,-300 70.48,-294 76.48,-288 82.48,-288 82.48,-288 153.48,-288 153.48,-288 159.48,-288 165.48,-294 165.48,-300 165.48,-300 165.48,-312 165.48,-312 165.48,-318 159.48,-324 153.48,-324"/>
<text text-anchor="middle" x="117.98" y="-303.5" font-family="sans" font-size="10.00">identify_species</text>
</g>
<!-- 3&#45;&gt;2 -->
<g id="edge5" class="edge">
<title>3&#45;&gt;2</title>
<path fill="none" stroke="grey" stroke-width="2" d="M117.98,-287.7C117.98,-279.98 117.98,-270.71 117.98,-262.11"/>
<polygon fill="grey" stroke="grey" stroke-width="2" points="121.48,-262.1 117.98,-252.1 114.48,-262.1 121.48,-262.1"/>
</g>
<!-- 4 -->
<g id="node5" class="node">
<title>4</title>
<path fill="none" stroke="#56b1d8" stroke-width="2" d="M249.48,-108C249.48,-108 148.48,-108 148.48,-108 142.48,-108 136.48,-102 136.48,-96 136.48,-96 136.48,-84 136.48,-84 136.48,-78 142.48,-72 148.48,-72 148.48,-72 249.48,-72 249.48,-72 255.48,-72 261.48,-78 261.48,-84 261.48,-84 261.48,-96 261.48,-96 261.48,-102 255.48,-108 249.48,-108"/>
<text text-anchor="middle" x="198.98" y="-87.5" font-family="sans" font-size="10.00">serotype_multireports</text>
</g>
<!-- 4&#45;&gt;0 -->
<g id="edge3" class="edge">
<title>4&#45;&gt;0</title>
<path fill="none" stroke="grey" stroke-width="2" d="M166.44,-71.88C146.97,-61.63 122.18,-48.58 102.1,-38.01"/>
<polygon fill="grey" stroke="grey" stroke-width="2" points="103.73,-34.91 93.25,-33.35 100.46,-41.11 103.73,-34.91"/>
</g>
<!-- 5&#45;&gt;4 -->
<g id="edge6" class="edge">
<title>5&#45;&gt;4</title>
<path fill="none" stroke="grey" stroke-width="2" d="M188.44,-143.7C189.98,-135.98 191.84,-126.71 193.56,-118.11"/>
<polygon fill="grey" stroke="grey" stroke-width="2" points="197.03,-118.6 195.56,-108.1 190.16,-117.22 197.03,-118.6"/>
</g>
<!-- 6&#45;&gt;0 -->
<g id="edge1" class="edge">
<title>6&#45;&gt;0</title>
<path fill="none" stroke="grey" stroke-width="2" d="M65.98,-71.7C65.98,-63.98 65.98,-54.71 65.98,-46.11"/>
<polygon fill="grey" stroke="grey" stroke-width="2" points="69.48,-46.1 65.98,-36.1 62.48,-46.1 69.48,-46.1"/>
</g>
</g>
</svg>
